<svg width="16" height="16" viewBox="0 0 16 16" fill="none" xmlns="http://www.w3.org/2000/svg">
<path d="M5.99992 7.33333C7.47268 7.33333 8.66659 6.13942 8.66659 4.66667C8.66659 3.19391 7.47268 2 5.99992 2C4.52716 2 3.33325 3.19391 3.33325 4.66667C3.33325 6.13942 4.52716 7.33333 5.99992 7.33333Z" stroke="white" stroke-width="1.33333" stroke-linecap="round" stroke-linejoin="round"/>
<path d="M2 14V12.6667C2 11.9594 2.28095 11.2811 2.78105 10.781C3.28115 10.281 3.95942 10 4.66667 10H7.33333C8.04058 10 8.71885 10.281 9.21895 10.781C9.71905 11.2811 10 11.9594 10 12.6667V14" stroke="white" stroke-width="1.33333" stroke-linecap="round" stroke-linejoin="round"/>
<path d="M10.6667 2.08667C11.2404 2.23354 11.7488 2.56714 12.1118 3.03488C12.4749 3.50262 12.672 4.07789 12.672 4.67C12.672 5.26212 12.4749 5.83739 12.1118 6.30513C11.7488 6.77287 11.2404 7.10647 10.6667 7.25333" stroke="white" stroke-width="1.33333" stroke-linecap="round" stroke-linejoin="round"/>
<path d="M14 13.9999V12.6665C13.9966 12.078 13.7986 11.5071 13.4368 11.0428C13.0751 10.5785 12.5699 10.247 12 10.0999" stroke="white" stroke-width="1.33333" stroke-linecap="round" stroke-linejoin="round"/>
</svg>
